<svg xmlns="http://www.w3.org/2000/svg" xmlns:xlink="http://www.w3.org/1999/xlink" width="92" height="92" viewBox="0 0 92 92">
    <defs>
        <circle id="b" cx="42" cy="42" r="42"/>
        <filter id="a" width="114.3%" height="114.3%" x="-7.1%" y="-7.1%" filterUnits="objectBoundingBox">
            <feOffset in="SourceAlpha" result="shadowOffsetOuter1"/>
            <feGaussianBlur in="shadowOffsetOuter1" result="shadowBlurOuter1" stdDeviation="2"/>
            <feColorMatrix in="shadowBlurOuter1" values="0 0 0 0 0 0 0 0 0 0 0 0 0 0 0 0 0 0 0.5 0"/>
        </filter>
    </defs>
    <g fill="none" fill-rule="evenodd">
        <g fill="#000" opacity=".7" transform="translate(4 4)">
            <use filter="url(#a)" xlink:href="#b"/>
            <use xlink:href="#b"/>
        </g>
        <path fill="#FFF" fill-rule="nonzero" d="M46 4C22.8 4 4 22.8 4 46s18.8 42 42 42 42-18.8 42-42S69.2 4 46 4zm0 80C25 84 8 67 8 46S25 8 46 8s38 17 38 38-17 38-38 38z"/>
        <path fill="#FFF" fill-rule="nonzero" d="M62.1 43.4L41.2 29.1c-.9-.5-2.1-.5-3 0-.9.5-1.5 1.5-1.5 2.6v28.6c0 1.1.6 2.1 1.5 2.6.5.3 1 .4 1.5.4s1.1-.1 1.6-.4l20.8-14.3c.9-.5 1.5-1.5 1.5-2.6-.1-1.1-.6-2.1-1.5-2.6z"/>
    </g>
</svg>
